<svg xmlns="http://www.w3.org/2000/svg" xmlns:xlink="http://www.w3.org/1999/xlink" viewBox="0 0 95.481 78.74374063891243" height="78.74374063891243" width="95.481" data-background-color="#313136" preserveAspectRatio="xMidYMid meet" id="tight-bounds"><g><svg viewBox="0 0 95.481 78.74374063891243" height="78.74374063891243" width="95.481"><g><svg viewBox="0 0 95.481 78.74374063891243" height="78.74374063891243" width="95.481"><g id="textblocktransform"><svg viewBox="0 0 95.481 78.74374063891243" height="78.74374063891243" width="95.481" id="textblock"><g><svg viewBox="0 0 95.481 78.74374063891243" height="78.74374063891243" width="95.481"><g><svg viewBox="0 0 95.481 78.74374063891243" height="78.74374063891243" width="95.481"><g><svg xmlns="http://www.w3.org/2000/svg" xmlns:xlink="http://www.w3.org/1999/xlink" version="1.1" x="0" y="0" viewBox="7.599999904632568 21.899999618530273 85 70.0999984741211" style="enable-background:new 0 0 100 100;" xml:space="preserve" height="78.74374063891243" width="95.481" class="icon-icon-0" data-fill-palette-color="accent" id="icon-0" fill="#000000"><path d="M17.1 80.1C17.1 80.7 16.6 81.1 16.1 81.1 15.5 81.1 15.1 80.6 15.1 80.1S15.6 79.1 16.1 79.1C16.7 79.1 17.1 79.5 17.1 80.1M22.1 81.1C22.7 81.1 23.1 80.7 23.1 80.1S22.7 79.1 22.1 79.1 21.1 79.5 21.1 80.1 21.5 81.1 22.1 81.1M28.1 79.1C27.5 79.1 27.1 79.5 27.1 80.1S27.5 81.1 28.1 81.1 29.1 80.7 29.1 80.1 28.7 79.1 28.1 79.1M34.1 79.1C33.5 79.1 33.1 79.5 33.1 80.1S33.5 81.1 34.1 81.1 35.1 80.7 35.1 80.1 34.7 79.1 34.1 79.1M16.1 75.1C16.7 75.1 17.1 74.7 17.1 74.1S16.7 73.1 16.1 73.1 15.1 73.5 15.1 74.1 15.5 75.1 16.1 75.1M22.1 75.1C22.7 75.1 23.1 74.7 23.1 74.1S22.7 73.1 22.1 73.1 21.1 73.5 21.1 74.1 21.5 75.1 22.1 75.1M28.1 73.1C27.5 73.1 27.1 73.5 27.1 74.1S27.5 75.1 28.1 75.1 29.1 74.7 29.1 74.1 28.7 73.1 28.1 73.1M34.1 73.1C33.5 73.1 33.1 73.5 33.1 74.1S33.5 75.1 34.1 75.1 35.1 74.7 35.1 74.1 34.7 73.1 34.1 73.1M16.1 69.1C16.7 69.1 17.1 68.7 17.1 68.1S16.7 67.1 16.1 67.1 15.1 67.5 15.1 68.1 15.5 69.1 16.1 69.1M22.1 69.1C22.7 69.1 23.1 68.7 23.1 68.1S22.7 67.1 22.1 67.1 21.1 67.5 21.1 68.1 21.5 69.1 22.1 69.1M28.1 67.1C27.5 67.1 27.1 67.5 27.1 68.1S27.5 69.1 28.1 69.1 29.1 68.7 29.1 68.1 28.7 67.1 28.1 67.1M16.1 63.1C16.7 63.1 17.1 62.7 17.1 62.1S16.7 61.1 16.1 61.1 15.1 61.5 15.1 62.1 15.5 63.1 16.1 63.1M22.1 63.1C22.7 63.1 23.1 62.7 23.1 62.1S22.7 61.1 22.1 61.1 21.1 61.5 21.1 62.1 21.5 63.1 22.1 63.1M16.1 57.1C16.7 57.1 17.1 56.7 17.1 56.1S16.7 55.1 16.1 55.1 15.1 55.5 15.1 56.1 15.5 57.1 16.1 57.1M91.6 90H8.6C8 90 7.6 90.4 7.6 91S8 92 8.6 92H91.6C92.2 92 92.6 91.6 92.6 91S92.2 90 91.6 90M9.1 48H9V42.3L50 21.9 91 42.3V43H91.1V88H9.1zM49 86V68H41V86zM59 86V68H51V86zM50 24.1L11.1 43.5V86H39V66H61V86H89.1V48H89V43.5zM84.1 81.1C84.7 81.1 85.1 80.6 85.1 80.1S84.6 79.1 84.1 79.1C83.5 79.1 83.1 79.6 83.1 80.1S83.6 81.1 84.1 81.1M78.1 81.1C78.7 81.1 79.1 80.6 79.1 80.1S78.6 79.1 78.1 79.1C77.5 79.1 77.1 79.6 77.1 80.1S77.6 81.1 78.1 81.1M72.1 79.1C71.5 79.1 71.1 79.6 71.1 80.1S71.6 81.1 72.1 81.1C72.7 81.1 73.1 80.6 73.1 80.1S72.7 79.1 72.1 79.1M66.1 79.1C65.5 79.1 65.1 79.6 65.1 80.1S65.6 81.1 66.1 81.1C66.7 81.1 67.1 80.6 67.1 80.1S66.7 79.1 66.1 79.1M84.1 75.1C84.7 75.1 85.1 74.6 85.1 74.1S84.6 73.1 84.1 73.1C83.5 73.1 83.1 73.6 83.1 74.1S83.6 75.1 84.1 75.1M78.1 75.1C78.7 75.1 79.1 74.6 79.1 74.1S78.6 73.1 78.1 73.1C77.5 73.1 77.1 73.6 77.1 74.1S77.6 75.1 78.1 75.1M72.1 73.1C71.5 73.1 71.1 73.6 71.1 74.1S71.6 75.1 72.1 75.1C72.7 75.1 73.1 74.6 73.1 74.1S72.7 73.1 72.1 73.1M66.1 73.1C65.5 73.1 65.1 73.6 65.1 74.1S65.6 75.1 66.1 75.1C66.7 75.1 67.1 74.6 67.1 74.1S66.7 73.1 66.1 73.1M84.1 69.1C84.7 69.1 85.1 68.6 85.1 68.1S84.6 67.1 84.1 67.1C83.5 67.1 83.1 67.6 83.1 68.1S83.6 69.1 84.1 69.1M78.1 69.1C78.7 69.1 79.1 68.6 79.1 68.1S78.6 67.1 78.1 67.1C77.5 67.1 77.1 67.6 77.1 68.1S77.6 69.1 78.1 69.1M72.1 67.1C71.5 67.1 71.1 67.6 71.1 68.1S71.6 69.1 72.1 69.1C72.7 69.1 73.1 68.6 73.1 68.1S72.7 67.1 72.1 67.1M84.1 63.1C84.7 63.1 85.1 62.6 85.1 62.1S84.6 61.1 84.1 61.1C83.5 61.1 83.1 61.6 83.1 62.1S83.6 63.1 84.1 63.1M78.1 63.1C78.7 63.1 79.1 62.6 79.1 62.1S78.6 61.1 78.1 61.1C77.5 61.1 77.1 61.6 77.1 62.1S77.6 63.1 78.1 63.1M84.1 57.1C84.7 57.1 85.1 56.6 85.1 56.1S84.6 55.1 84.1 55.1C83.5 55.1 83.1 55.6 83.1 56.1S83.6 57.1 84.1 57.1M34 51H24V43H76V51zM66 49H74V45H66zM56 49H64V45H56zM46 49H54V45H46zM36 49H44V45H36zM34 49V45H26V49z" fill="#000000" data-fill-palette-color="accent"/></svg></g></svg></g></svg></g></svg></g></svg></g><g/></svg></g><defs/></svg>